<svg xmlns="http://www.w3.org/2000/svg" xmlns:xlink="http://www.w3.org/1999/xlink" viewBox="-3034.224 1605 62 62">
  <defs>
    <style>
      .cls-1 {
        fill: url(#linear-gradient);
      }

      .cls-2 {
        fill: #32b7a1;
      }

      .cls-3 {
        fill: #3a7e73;
      }
    </style>
    <linearGradient id="linear-gradient" x1="0.272" y1="-0.15" x2="0.768" y2="1.33" gradientUnits="objectBoundingBox">
      <stop offset="0" stop-color="#c447a1"/>
      <stop offset="1" stop-color="#2e0b84"/>
    </linearGradient>
  </defs>
  <g id="share" transform="translate(-3034.225 1605)">
    <path id="Subtraction_4" data-name="Subtraction 4" class="cls-1" d="M3051.016-1571.158a16.876,16.876,0,0,1-16.792-16.921A16.876,16.876,0,0,1,3051.016-1605a16.876,16.876,0,0,1,16.792,16.921A16.876,16.876,0,0,1,3051.016-1571.158Zm0-27.771a10.8,10.8,0,0,0-10.721,10.85,10.8,10.8,0,0,0,10.721,10.849,10.8,10.8,0,0,0,10.721-10.849A10.8,10.8,0,0,0,3051.016-1598.929Z" transform="translate(-3034.225 1618.821)"/>
    <path id="Subtraction_5" data-name="Subtraction 5" class="cls-1" d="M3046.237-1580.717a12.091,12.091,0,0,1-12.012-12.142A12.091,12.091,0,0,1,3046.237-1605a12.091,12.091,0,0,1,12.012,12.141A12.091,12.091,0,0,1,3046.237-1580.717Zm0-19.375a7.242,7.242,0,0,0-7.233,7.233,7.242,7.242,0,0,0,7.233,7.233,7.241,7.241,0,0,0,7.233-7.233A7.241,7.241,0,0,0,3046.237-1600.092Z" transform="translate(-2996.25 1605)"/>
    <path id="Subtraction_6" data-name="Subtraction 6" class="cls-1" d="M3046.237-1580.717a12.091,12.091,0,0,1-12.012-12.142A12.091,12.091,0,0,1,3046.237-1605a12.091,12.091,0,0,1,12.012,12.141A12.091,12.091,0,0,1,3046.237-1580.717Zm0-19.375a7.242,7.242,0,0,0-7.233,7.233,7.242,7.242,0,0,0,7.233,7.233,7.241,7.241,0,0,0,7.233-7.233A7.241,7.241,0,0,0,3046.237-1600.092Z" transform="translate(-2996.25 1642.717)"/>
    <g id="Group_197" data-name="Group 197" transform="translate(29.321 14.854)">
      <path id="Path_1440" data-name="Path 1440" class="cls-2" d="M250.249,125.846l-1.808,1.033-7.1,4a18.7,18.7,0,0,0-3.1-5.683l7.1-4,1.808-1.033A12.869,12.869,0,0,0,250.249,125.846Z" transform="translate(-238.107 -120.163)"/>
      <path id="Path_1441" data-name="Path 1441" class="cls-2" d="M249.463,296.822a11.925,11.925,0,0,0-3.229,5.683l-1.808-1.033-7.233-4.263a19.055,19.055,0,0,0,3.229-5.683l7.233,4.263Z" transform="translate(-237.192 -270.343)"/>
    </g>
    <g id="Group_198" data-name="Group 198" transform="translate(36.554 14.854)">
      <path id="Path_1442" data-name="Path 1442" class="cls-3" d="M300.613,125.847l-1.808,1.033a12.87,12.87,0,0,1-3.1-5.683l1.808-1.033A12.87,12.87,0,0,0,300.613,125.847Z" transform="translate(-295.705 -120.164)"/>
      <path id="Path_1443" data-name="Path 1443" class="cls-3" d="M300.743,327.041a11.926,11.926,0,0,0-3.229,5.683l-1.808-1.033a14.526,14.526,0,0,1,3.229-5.683Z" transform="translate(-295.706 -300.562)"/>
    </g>
  </g>
</svg>
