<svg id="Group_317" data-name="Group 317" xmlns="http://www.w3.org/2000/svg" xmlns:xlink="http://www.w3.org/1999/xlink" viewBox="0 0 49.68 49.68"><defs><style>.cls-1{fill:#32b7a1;}.cls-2{fill:url(#linear-gradient);}</style><linearGradient id="linear-gradient" x1="3997.77" y1="6632.59" x2="3998.13" y2="6633.89" gradientTransform="translate(-183522.25 -224074.6) scale(45.91 33.78)" gradientUnits="userSpaceOnUse"><stop offset="0" stop-color="#2e0b84"/><stop offset="1" stop-color="#c447a1"/></linearGradient></defs><title>icon</title><g id="retweet-"><g id="Group_314" data-name="Group 314"><path id="Path_1897" data-name="Path 1897" class="cls-1" d="M49,27.37a2.18,2.18,0,0,1,0,3.08l0,0-6.73,6.73a2.12,2.12,0,0,1-3,.12l-.12-.12-6.73-6.73a2.18,2.18,0,0,1,0-3.08l0,0a2.06,2.06,0,0,1,2.92-.11l.11.11,3.12,3.12V16.16h-20l-4.39-4.39H40.74a2.17,2.17,0,0,1,2.14,2.14V30.5L46,27.37a2.06,2.06,0,0,1,2.92-.1Z"/><path id="Path_1898" data-name="Path 1898" class="cls-2" d="M31.15,33.52l4.36,4.38H8.95A2.17,2.17,0,0,1,6.8,35.76V19.18L3.68,22.3a2.06,2.06,0,0,1-2.92.11L.66,22.3a2.18,2.18,0,0,1,0-3.08l0,0,6.73-6.83a2.21,2.21,0,0,1,1.56-.58,2.21,2.21,0,0,1,1.56.58l6.73,6.83a2.18,2.18,0,0,1,0,3.08l0,0a2.21,2.21,0,0,1-1.56.58,2,2,0,0,1-1.46-.58l-3.12-3.12V33.52Z"/></g></g></svg>