<?xml version="1.0" encoding="utf-8"?>
<!-- Generator: Adobe Illustrator 21.1.0, SVG Export Plug-In . SVG Version: 6.00 Build 0)  -->
<svg version="1.1" id="Layer_1" xmlns="http://www.w3.org/2000/svg" xmlns:xlink="http://www.w3.org/1999/xlink" x="0px" y="0px"
	 viewBox="0 0 65 50" style="enable-background:new 0 0 65 50;" xml:space="preserve">
<style type="text/css">
	.st0{fill:#32B7A1;}
	.st1{fill:url(#Path_1898_1_);}
</style>
<g id="retweet-" transform="translate(-4479 6615.358)">
	<g id="Group_314" transform="translate(0 120.75)">
		<path id="Path_1897" class="st0" d="M4536.7-6708.6c0.9,0.9,0.9,2.2,0.1,3.1c0,0,0,0-0.1,0.1l-6.7,6.7c-0.8,0.9-2.2,0.9-3,0.2
			c-0.1,0-0.1-0.1-0.2-0.2l-6.7-6.7c-0.9-0.9-0.9-2.2-0.1-3.1c0,0,0,0,0.1-0.1c0.8-0.9,2.1-0.9,2.9-0.1l0.1,0.1l3.1,3.1v-20.7h-25
			c-0.8-0.8-3.6-3.6-4.4-4.4h31.6c1.2,0,2.2,0.9,2.2,2.2v22.9l3.1-3.1C4534.4-6709.4,4535.8-6709.4,4536.7-6708.6
			C4536.6-6708.6,4536.6-6708.6,4536.7-6708.6z"/>
		
			<linearGradient id="Path_1898_1_" gradientUnits="userSpaceOnUse" x1="12967.2119" y1="-6143.6445" x2="12967.6631" y2="-6145.2573" gradientTransform="matrix(45.9079 0 0 -33.784 -590805.5 -214294.6719)">
			<stop  offset="0" style="stop-color:#2E0B84"/>
			<stop  offset="1" style="stop-color:#C447A1"/>
		</linearGradient>
		<path id="Path_1898" class="st1" d="M4521.9-6695.8c1.1,1.1,3.3,3.3,4.3,4.4h-31.6c-1.2,0-2.2-0.9-2.2-2.2v-23.2l-3.1,3.1
			c-0.8,0.9-2.1,0.9-2.9,0.1l-0.1-0.1c-0.9-0.9-0.9-2.2-0.1-3.1c0,0,0,0,0.1-0.1l6.7-6.8c0.4-0.4,1-0.6,1.5-0.6s1.2,0.2,1.5,0.6
			l6.7,6.8c0.9,0.9,0.9,2.2,0.1,3.1c0,0,0,0-0.1,0.1c-0.4,0.4-1,0.6-1.5,0.6s-1.1-0.2-1.5-0.6l-3.1-3.1v21L4521.9-6695.8
			L4521.9-6695.8z"/>
	</g>
</g>
</svg>
