<?xml version="1.0" encoding="utf-8"?>
<!-- Generator: Adobe Illustrator 21.1.0, SVG Export Plug-In . SVG Version: 6.00 Build 0)  -->
<svg version="1.1" id="Group_317" xmlns="http://www.w3.org/2000/svg" xmlns:xlink="http://www.w3.org/1999/xlink" x="0px" y="0px"
	 viewBox="0 0 49.7 49.7" style="enable-background:new 0 0 49.7 49.7;" xml:space="preserve">
<style type="text/css">
	.st0{fill:#32B7A1;}
	.st1{fill:url(#Path_1894_1_);}
	.st2{fill:#C447A1;}
</style>
<title>icon</title>
<g id="bug">
	<path id="Path_1885" class="st0" d="M12.2,22c1,0,1.8-0.8,1.8-1.8c0-0.7-0.5-1.4-1.1-1.6c-2-0.7-3.5-2.5-3.9-4.6
		c-0.1-1-1-1.6-2-1.5c-1,0.1-1.6,1-1.5,2c0.6,3.4,3,6.2,6.2,7.4C11.7,21.9,12,22,12.2,22z"/>
	<path id="Path_1886" class="st0" d="M40.8,42.6h0.3c1-0.1,1.6-1,1.5-2c0,0,0,0,0,0c-0.6-3.4-3-6.2-6.2-7.4c-0.9-0.3-1.9,0.1-2.3,1
		c-0.3,0.9,0.1,1.9,1,2.3c2,0.8,3.5,2.5,3.9,4.6C39.2,42,39.9,42.6,40.8,42.6z"/>
	<path id="Path_1889" class="st0" d="M44.4,28.4H5.3c-1,0-1.8-0.8-1.8-1.8c0-1,0.8-1.8,1.8-1.8h39.1c1,0,1.8,0.8,1.8,1.8
		C46.1,27.6,45.4,28.4,44.4,28.4z"/>
	<path id="Path_1890" class="st0" d="M21.3,12.5c-0.6,0-1.2-0.3-1.5-0.9l-5.4-9c-0.5-0.8-0.2-1.9,0.6-2.4C15.9-0.3,17,0,17.5,0.9
		l5.4,9c0.5,0.8,0.2,1.9-0.6,2.4C22,12.4,21.6,12.5,21.3,12.5L21.3,12.5z"/>
	<path id="Path_1891" class="st0" d="M28.4,12.5c-1,0-1.8-0.8-1.8-1.8c0-0.3,0.1-0.6,0.3-0.9l5.3-9c0.5-0.8,1.6-1.1,2.4-0.6
		s1.1,1.6,0.6,2.4l0,0l-5.4,8.9C29.6,12.2,29,12.5,28.4,12.5z"/>
	<path id="Path_1892" class="st0" d="M37.5,22c-1,0-1.8-0.8-1.8-1.8c0-0.7,0.5-1.4,1.1-1.6c2-0.8,3.5-2.5,3.9-4.6
		c0.2-1,1.1-1.6,2.1-1.4c0.9,0.2,1.5,1,1.4,1.9c-0.6,3.4-3,6.2-6.2,7.4C37.9,21.9,37.7,22,37.5,22z"/>
	<path id="Path_1893" class="st0" d="M8.9,42.6H8.6c-1-0.1-1.6-1-1.5-2c0.6-3.4,3-6.2,6.2-7.4c0.9-0.3,1.9,0.1,2.3,1
		c0.3,0.9-0.1,1.9-1,2.3l0,0c-2,0.8-3.5,2.5-3.9,4.6C10.5,42,9.7,42.6,8.9,42.6z"/>
	
		<linearGradient id="Path_1894_1_" gradientUnits="userSpaceOnUse" x1="3930.8608" y1="-6198.6255" x2="3931.4011" y2="-6199.3628" gradientTransform="matrix(37.34 0 0 -46.71 -146760.9844 -289526.4375)">
		<stop  offset="0" style="stop-color:#2E0B84"/>
		<stop  offset="1" style="stop-color:#C447A1"/>
	</linearGradient>
	<path id="Path_1894" class="st1" d="M39,23.1c0,10.8-4.1,19.5-14.2,19.5s-14.2-8.7-14.2-19.5s5.3-16,14.2-16S39,12.3,39,23.1z"/>
	<path id="Union_36" class="st2" d="M23.1,42.5V17.8H11.2c1.5-7.2,6.4-10.7,13.7-10.7S37,10.6,38.5,17.8H26.6v24.8
		C25.4,42.6,24.3,42.6,23.1,42.5L23.1,42.5z"/>
</g>
</svg>
