<svg id="Group_317" data-name="Group 317" xmlns="http://www.w3.org/2000/svg" xmlns:xlink="http://www.w3.org/1999/xlink" viewBox="0 0 49.68 49.68"><defs><style>.cls-1{fill:url(#linear-gradient);}.cls-2{fill:#c447a1;}.cls-3{fill:url(#linear-gradient-2);}.cls-4{fill:#32b7a1;}</style><linearGradient id="linear-gradient" x1="-415.49" y1="-132.33" x2="-414.67" y2="-131.63" gradientTransform="translate(18284.88 3992.93) scale(44 30)" gradientUnits="userSpaceOnUse"><stop offset="0" stop-color="#2e0b84"/><stop offset="0.48" stop-color="#7d2b93"/><stop offset="0.83" stop-color="#b03f9d"/><stop offset="1" stop-color="#c447a1"/></linearGradient><linearGradient id="linear-gradient-2" x1="-429.79" y1="-472.31" x2="-427.73" y2="-471.49" gradientTransform="translate(21456.84 5208.64) scale(50 11)" gradientUnits="userSpaceOnUse"><stop offset="0.21" stop-color="#2e0b84"/><stop offset="0.86" stop-color="#bf45a0"/><stop offset="0.88" stop-color="#c447a1"/></linearGradient></defs><title>icon</title><path id="Rectangle_830" data-name="Rectangle 830" class="cls-1" d="M44.31,23.13v23a3.54,3.54,0,0,1-3.54,3.54H8.91a3.54,3.54,0,0,1-3.54-3.54v-23Z"/><path id="Path_1901" data-name="Path 1901" class="cls-2" d="M44.31,27.55H5.37V23.13H44.31Z"/><path id="Rectangle_831" data-name="Rectangle 831" class="cls-3" d="M4.49,13.4H45.19A1.77,1.77,0,0,1,47,15.17v6.19a1.77,1.77,0,0,1-1.77,1.77H4.49a1.77,1.77,0,0,1-1.77-1.77V15.17A1.77,1.77,0,0,1,4.49,13.4Z"/><path id="Union_37" data-name="Union 37" class="cls-4" d="M25.67,49.68H23.53V13.4H17.42a6.7,6.7,0,1,1,0-13.4c3.39,0,6.4,2.08,8.32,4.83C27.65,2.08,30.65,0,34,0h0a6.7,6.7,0,1,1,0,13.4H27.92V49.68ZM34,9a2.33,2.33,0,1,0,0-4.67A5.26,5.26,0,0,0,29.88,6.6a8.85,8.85,0,0,0-1,1.34A8.26,8.26,0,0,0,28.38,9Zm-19-2.33A2.34,2.34,0,0,0,17.41,9l5.65,0A8.68,8.68,0,0,0,21.57,6.6a5.08,5.08,0,0,0-4.17-2.24A2.34,2.34,0,0,0,15.06,6.7Z"/></svg>