<svg id="Group_317" data-name="Group 317" xmlns="http://www.w3.org/2000/svg" xmlns:xlink="http://www.w3.org/1999/xlink" viewBox="0 0 49.68 49.68"><defs><style>.cls-1{fill:#32b7a1;}.cls-2{fill:url(#linear-gradient);}.cls-3{fill:#c447a1;}</style><linearGradient id="linear-gradient" x1="4202.98" y1="6613" x2="4203.61" y2="6613.86" gradientTransform="translate(-156936.18 -308868.05) scale(37.34 46.71)" gradientUnits="userSpaceOnUse"><stop offset="0" stop-color="#2e0b84"/><stop offset="1" stop-color="#c447a1"/></linearGradient></defs><title>icon</title><g id="bug"><path id="Path_1885" data-name="Path 1885" class="cls-1" d="M10.07,25.62a2.07,2.07,0,0,0,.73-4,7.28,7.28,0,0,1-4.6-5.35,2.07,2.07,0,0,0-4.1.61,11.5,11.5,0,0,0,7.24,8.62A2.07,2.07,0,0,0,10.07,25.62Z"/><path id="Path_1886" data-name="Path 1886" class="cls-1" d="M43.46,49.68l.3,0a2.07,2.07,0,0,0,1.75-2.35,11.49,11.49,0,0,0-7.24-8.62,2.07,2.07,0,0,0-1.46,3.88,7.31,7.31,0,0,1,4.6,5.35A2.07,2.07,0,0,0,43.46,49.68Z"/><path id="Path_1889" data-name="Path 1889" class="cls-1" d="M47.61,33.12H2.07a2.07,2.07,0,0,1,0-4.14H47.61a2.07,2.07,0,0,1,0,4.14Z"/><path id="Path_1890" data-name="Path 1890" class="cls-1" d="M20.74,14.58a2.07,2.07,0,0,1-1.77-1L12.71,3.14A2.07,2.07,0,1,1,16.27,1l6.25,10.44a2.07,2.07,0,0,1-1.77,3.13Z"/><path id="Path_1891" data-name="Path 1891" class="cls-1" d="M29,14.58a2.07,2.07,0,0,1-1.77-3.14L33.43,1A2.07,2.07,0,0,1,37,3.14L30.74,13.57A2.09,2.09,0,0,1,29,14.58Z"/><path id="Path_1892" data-name="Path 1892" class="cls-1" d="M39.62,25.62a2.07,2.07,0,0,1-.73-4,7.3,7.3,0,0,0,4.6-5.35,2.07,2.07,0,0,1,4.09.61,11.49,11.49,0,0,1-7.24,8.62A2,2,0,0,1,39.62,25.62Z"/><path id="Path_1893" data-name="Path 1893" class="cls-1" d="M6.21,49.68l-.3,0a2.08,2.08,0,0,1-1.75-2.35,11.51,11.51,0,0,1,7.24-8.62,2.07,2.07,0,1,1,1.46,3.88,7.3,7.3,0,0,0-4.6,5.35A2.07,2.07,0,0,1,6.21,49.68Z"/><path id="Path_1894" data-name="Path 1894" class="cls-2" d="M41.39,26.91c0,12.58-4.73,22.77-16.55,22.77S8.29,39.49,8.29,26.91,14.44,8.28,24.84,8.28,41.39,14.34,41.39,26.91Z"/><path id="Union_36" data-name="Union 36" class="cls-3" d="M22.77,49.57V20.7H8.89c1.77-8.36,7.45-12.42,15.95-12.42S39,12.34,40.79,20.7H26.91V49.57a19,19,0,0,1-4.13,0Z"/></g></svg>