<svg xmlns="http://www.w3.org/2000/svg" viewBox="0 0 183.09 191.07"><title>icon-columns_1</title><g id="Layer_2" data-name="Layer 2"><g id="Layer_1-2" data-name="Layer 1"><path d="M172.09,124h-49a11,11,0,0,1-11-11V11a11,11,0,0,1,11-11h49a11,11,0,0,1,11,11V113A11,11,0,0,1,172.09,124Zm-49-118a5,5,0,0,0-5,5V113a5,5,0,0,0,5,5h49a5,5,0,0,0,5-5V11a5,5,0,0,0-5-5Z"/><path d="M85.09,144h-49a11,11,0,0,1-11-11V31a11,11,0,0,1,11-11h49a11,11,0,0,1,11,11V133A11,11,0,0,1,85.09,144Zm-49-118a5,5,0,0,0-5,5V133a5,5,0,0,0,5,5h49a5,5,0,0,0,5-5V31a5,5,0,0,0-5-5Z"/><path d="M20.87,124H13a3,3,0,1,1,0-6h7.83a3,3,0,1,1,0,6ZM3.51,118.8A3,3,0,0,1,.7,116.86,10.91,10.91,0,0,1,0,113v-5a3,3,0,0,1,6,0v5a4.94,4.94,0,0,0,.32,1.74,3,3,0,0,1-2.81,4.06ZM3,99.3a3,3,0,0,1-3-3V88.47a3,3,0,0,1,6,0V96.3A3,3,0,0,1,3,99.3ZM3,79.73a3,3,0,0,1-3-3V68.91a3,3,0,0,1,6,0v7.83A3,3,0,0,1,3,79.73ZM3,60.17a3,3,0,0,1-3-3V49.34a3,3,0,0,1,6,0v7.83A3,3,0,0,1,3,60.17ZM3,40.6a3,3,0,0,1-3-3V29.77a3,3,0,1,1,6,0V37.6A3,3,0,0,1,3,40.6ZM3,21a3,3,0,0,1-3-3V11q0-.55.05-1.09a3,3,0,0,1,6,.6c0,.16,0,.33,0,.49v7A3,3,0,0,1,3,21Zm65-2.1a3,3,0,0,1-3-3V11a4.92,4.92,0,0,0-.32-1.76A3,3,0,0,1,70.28,7.1,10.89,10.89,0,0,1,71,11v4.93A3,3,0,0,1,68,18.93ZM57.93,6H50.1a3,3,0,0,1,0-6h7.83a3,3,0,0,1,0,6ZM38.36,6H30.54a3,3,0,0,1,0-6h7.83a3,3,0,0,1,0,6ZM18.8,6H11a3,3,0,1,1,0-6H18.8a3,3,0,0,1,0,6Z"/><path d="M158.08,162.24l-9.73-15.71a3.31,3.31,0,0,0-4.54-1.08l-15.71,9.73a3.28,3.28,0,0,0-1.08,4.54,3.3,3.3,0,0,0,4.54,1.08L140.9,155a39.89,39.89,0,0,1-75.14,5.34,3.29,3.29,0,1,0-6.05,2.59,46.5,46.5,0,0,0,38.48,27.93h0q2.12.19,4.23.19a46.32,46.32,0,0,0,27.87-9.29c.62-.46,1.24-1,1.85-1.47a46.09,46.09,0,0,0,15-23.19l5.32,8.57a3.28,3.28,0,0,0,4.47,1.12,1.44,1.44,0,0,0,.32-.19A3.31,3.31,0,0,0,158.08,162.24Z"/></g></g></svg>