<?xml version="1.0" encoding="utf-8"?>
<!-- Generator: Adobe Illustrator 21.1.0, SVG Export Plug-In . SVG Version: 6.00 Build 0)  -->
<svg version="1.1" id="Group_317" xmlns="http://www.w3.org/2000/svg" xmlns:xlink="http://www.w3.org/1999/xlink" x="0px" y="0px"
	 viewBox="0 0 49.7 49.7" style="enable-background:new 0 0 49.7 49.7;" xml:space="preserve">
<style type="text/css">
	.st0{fill:url(#Rectangle_830_1_);}
	.st1{fill:#C447A1;}
	.st2{fill:url(#Rectangle_831_1_);}
	.st3{fill:#32B7A1;}
</style>
<title>icon</title>
<g>
	
		<linearGradient id="Rectangle_830_1_" gradientUnits="userSpaceOnUse" x1="-689.0242" y1="542.1581" x2="-688.3781" y2="541.6065" gradientTransform="matrix(44 0 0 -30 30324.8809 16282.9297)">
		<stop  offset="0" style="stop-color:#2E0B84"/>
		<stop  offset="0.48" style="stop-color:#7D2B93"/>
		<stop  offset="0.83" style="stop-color:#B03F9D"/>
		<stop  offset="1" style="stop-color:#C447A1"/>
	</linearGradient>
	<path id="Rectangle_830" class="st0" d="M40.2,18.2v18.1c0,1.5-1.2,2.8-2.8,2.8l0,0H12.3c-1.5,0-2.8-1.2-2.8-2.8l0,0V18.2
		L40.2,18.2z"/>
	<path id="Path_1901" class="st1" d="M40.2,21.7H9.5v-3.5h30.7V21.7z"/>
	
		<linearGradient id="Rectangle_831_1_" gradientUnits="userSpaceOnUse" x1="-703.9464" y1="860.9289" x2="-702.3232" y2="860.2828" gradientTransform="matrix(50 0 0 -11 35176.8398 9480.6406)">
		<stop  offset="0.21" style="stop-color:#2E0B84"/>
		<stop  offset="0.86" style="stop-color:#BF45A0"/>
		<stop  offset="0.88" style="stop-color:#C447A1"/>
	</linearGradient>
	<path id="Rectangle_831" class="st2" d="M8.8,10.6h32.1c0.8,0,1.4,0.6,1.4,1.4c0,0,0,0,0,0v4.9c0,0.8-0.6,1.4-1.4,1.4l0,0H8.8
		c-0.8,0-1.4-0.6-1.4-1.4l0,0V12C7.4,11.2,8,10.6,8.8,10.6L8.8,10.6z"/>
	<path id="Union_37" class="st3" d="M24.8,39.1h-1.7V10.6h-4.8c-2.9,0-5.3-2.4-5.3-5.3S15.4,0,18.3,0c2.7,0,5,1.6,6.6,3.8
		C26.4,1.6,28.7,0,31.4,0l0,0c2.9,0,5.3,2.4,5.3,5.3s-2.4,5.3-5.3,5.3h-4.8v28.6H24.8z M31.4,7.1c1,0,1.8-0.8,1.8-1.8
		s-0.8-1.8-1.8-1.8l0,0c-1.3,0.1-2.5,0.7-3.2,1.8c-0.3,0.3-0.6,0.7-0.8,1.1c-0.2,0.3-0.3,0.5-0.4,0.8H31.4z M16.4,5.3
		c0,1,0.8,1.8,1.9,1.8c0,0,0,0,0,0h4.5c-0.3-0.7-0.7-1.3-1.2-1.9c-0.7-1.1-2-1.8-3.3-1.8C17.3,3.4,16.4,4.3,16.4,5.3L16.4,5.3z"/>
</g>
</svg>
