<?xml version="1.0" encoding="utf-8"?>
<!-- Generator: Adobe Illustrator 21.1.0, SVG Export Plug-In . SVG Version: 6.00 Build 0)  -->
<svg version="1.1" id="Layer_1" xmlns="http://www.w3.org/2000/svg" xmlns:xlink="http://www.w3.org/1999/xlink" x="0px" y="0px"
	 viewBox="0 0 1200 257" style="enable-background:new 0 0 1200 257;" xml:space="preserve">
<style type="text/css">
	.st0{fill:#E8E8E8;}
</style>
<title>linchpin-logo-lockup-fill-black</title>
<path class="st0" d="M221.3,39.8L171,90.1l17,17l-17,17l-42.6,42.6l-17-17l42.6-42.6l-25.6-25.5l-63.8,63.9l-17-17l63.8-63.8l17-17
	l17,17l47.3-47.3C131.3-18.1,52.8,3,17.3,64.4c-28.4,49.3-21,111.4,18.2,152.6l50.3-50.3l-17-17l0,0l0,0l17-17l0,0l42.6-42.6l17,17
	l-42.6,42.6l25.5,25.5l63.8-63.8l17,17l-80.9,80.9l-17-17l-47.2,47.3c61.4,35.5,139.9,14.6,175.4-46.8
	C268.1,143.4,260.7,81.1,221.3,39.8z M90.1,51.8l12.8,12.8l-38.3,38.3L51.8,90.1L90.1,51.8z M166.7,205l-12.8-12.8l38.3-38.3
	l12.7,12.8L166.7,205z"/>
<path class="st0" d="M725.4,160.4c-17.7,19.9-48.1,21.6-68,4c-19.9-17.7-21.6-48.1-4-68s48.1-21.6,68-4c1.4,1.2,2.7,2.6,4,4l0.7,0.8
	l12.3-10.9l-0.7-0.8c-23.7-26.6-64.5-28.9-91.2-5.2c-26.6,23.7-28.9,64.5-5.2,91.2s64.5,28.9,91.2,5.2c1.9-1.7,3.6-3.4,5.3-5.3
	l0.7-0.8l-12.3-10.9L725.4,160.4z"/>
<polygon class="st0" points="329,64.2 313.2,64.2 313,192.6 385.2,192.6 385.2,176.6 329,176.6 "/>
<rect x="429.4" y="64.2" class="st0" width="16" height="128.4"/>
<polygon class="st0" points="593.9,64.2 577.8,64.2 577.8,143.1 593.9,159.1 "/>
<polygon class="st0" points="487.6,64.2 487.6,192.6 503.6,192.6 503.6,102.3 593.9,192.6 593.9,170.5 "/>
<polygon class="st0" points="858.7,120.4 792.5,120.4 792.5,136.5 858.7,136.4 858.7,192.6 874.8,192.6 874.8,64.2 858.7,64.2 "/>
<polygon class="st0" points="784.5,64.2 768.5,64.2 768.5,192.4 784.5,192.6 "/>
<rect x="1035.3" y="64.2" class="st0" width="16.1" height="128.4"/>
<path class="st0" d="M970.9,64.3L941,64.2v16.1h30.1c11.1,0,20.1,9,20.1,20.1s-9,20.1-20.1,20.1l0,0H941v16.1l29.9,0.1
	c19.9,0,36.1-16.2,36.1-36.1S990.9,64.3,970.9,64.3L970.9,64.3z"/>
<rect x="916.9" y="64.2" class="st0" width="16" height="128.4"/>
<polygon class="st0" points="1200,64.2 1183.9,64.2 1183.9,143.1 1200,159.1 "/>
<polygon class="st0" points="1093.7,64.2 1093.7,192.6 1109.7,192.6 1109.7,102.3 1200,192.6 1200,170.5 "/>
</svg>
