<?xml version="1.0" encoding="utf-8"?>
<!-- Generator: Adobe Illustrator 19.2.1, SVG Export Plug-In . SVG Version: 6.00 Build 0)  -->
<svg version="1.1" id="Layer_1" xmlns="http://www.w3.org/2000/svg" xmlns:xlink="http://www.w3.org/1999/xlink" x="0px" y="0px"
	 viewBox="0 0 256 256" style="enable-background:new 0 0 256 256;" xml:space="preserve">
<style type="text/css">
	.st0{fill:#4E4E4E;}
	.st1{fill:#FFFFFF;}
</style>
<rect class="st0" width="256" height="256"/>
<g>
	
		<rect x="98.7" y="146.6" transform="matrix(0.7071 -0.7071 0.7071 0.7071 -76.9645 137.6677)" class="st1" width="58" height="30.3"/>
	
		<rect x="99.3" y="79.1" transform="matrix(0.7071 -0.7071 0.7071 0.7071 -29.0667 118.3502)" class="st1" width="58" height="30.3"/>
	
		<rect x="133.2" y="112.1" transform="matrix(0.7071 0.7071 -0.7071 0.7071 137.6624 -76.9771)" class="st1" width="57.1" height="31.2"/>
	
		<rect x="65.7" y="112.7" transform="matrix(0.7071 0.7071 -0.7071 0.7071 118.3449 -29.0793)" class="st1" width="57.1" height="31.2"/>
	
		<rect x="96.8" y="72.3" transform="matrix(0.7071 -0.7071 0.7071 0.7071 -21.8293 101.7693)" class="st1" width="30.3" height="9.8"/>
	
		<rect x="173.9" y="95.5" transform="matrix(0.7071 -0.7071 0.7071 0.7071 -25.8842 158.8258)" class="st1" width="9.8" height="30.3"/>
	
		<rect x="72.6" y="130" transform="matrix(0.7071 -0.7071 0.7071 0.7071 -80.2198 97.5313)" class="st1" width="10.1" height="31.2"/>
	
		<rect x="139.2" y="163.6" transform="matrix(0.7071 0.7071 -0.7071 0.7071 168.61 -49.5304)" class="st1" width="9.8" height="30.3"/>
</g>
<path class="st1" d="M128,39.8c48.7,0,88.2,39.6,88.2,88.2s-39.6,88.2-88.2,88.2S39.8,176.7,39.8,128S79.3,39.8,128,39.8 M128,29.1
	c-54.6,0-98.9,44.3-98.9,98.9s44.3,98.9,98.9,98.9s98.9-44.3,98.9-98.9S182.6,29.1,128,29.1L128,29.1z"/>
</svg>
